<?xml version="1.0" encoding="UTF-8" standalone="no"?>
<svg
   height="390"
   id="Layer_1"
   version="1.1"
   viewBox="0 0 390 390"
   width="390"
   xml:space="preserve"
   sodipodi:docname="add.svg"
   inkscape:export-filename="add.png"
   inkscape:export-xdpi="304.8"
   inkscape:export-ydpi="304.8"
   inkscape:version="1.2 (dc2aedaf03, 2022-05-15)"
   xmlns:inkscape="http://www.inkscape.org/namespaces/inkscape"
   xmlns:sodipodi="http://sodipodi.sourceforge.net/DTD/sodipodi-0.dtd"
   xmlns="http://www.w3.org/2000/svg"
   xmlns:svg="http://www.w3.org/2000/svg"><defs
     id="defs7" /><sodipodi:namedview
     id="namedview5"
     pagecolor="#ffffff"
     bordercolor="#666666"
     borderopacity="1.0"
     inkscape:showpageshadow="2"
     inkscape:pageopacity="0.0"
     inkscape:pagecheckerboard="0"
     inkscape:deskcolor="#d1d1d1"
     showgrid="false"
     inkscape:zoom="2"
     inkscape:cx="189.75"
     inkscape:cy="247.5"
     inkscape:window-width="1920"
     inkscape:window-height="1137"
     inkscape:window-x="1912"
     inkscape:window-y="-8"
     inkscape:window-maximized="1"
     inkscape:current-layer="layer1" /><g
     inkscape:groupmode="layer"
     id="layer1"
     inkscape:label="background"
     transform="matrix(0.93080725,0,0,0.9411725,11.737389,10.990432)"
     style="display:none;stroke-width:1.06841"
     sodipodi:insensitive="true"><rect
       style="opacity:0.992;fill:#008000;fill-opacity:1;stroke:#008000;stroke-width:8.07613;stroke-linejoin:round;paint-order:fill markers stroke"
       id="rect342"
       width="410.82904"
       height="406.5864"
       x="-8.485281"
       y="-7.7781744" /></g><g
     inkscape:groupmode="layer"
     id="layer2"
     inkscape:label="drawing"
     style="display:inline"><path
       d="m 227.61634,378.5923 0.2881,-151.46695 150.68748,0.86421 c 6.22342,0 11.29435,-5.07002 11.29435,-11.29231 l 0.11525,-43.21043 c 0,-2.99592 -1.2101,-5.819 -3.34221,-7.9507 -2.13208,-2.13174 -5.01332,-3.28402 -7.95214,-3.34163 L 228.59594,161.44551 227.67395,11.303696 c 0,-2.9959234 -1.2101,-5.8190042 -3.34221,-7.9507182 -2.13209,-2.1317143 -5.01331,-3.28399302 -7.95213,-3.34160593 l -43.16059,0.17284141 c -6.22341,0 -11.29436,5.07002252 -11.29436,11.29232372 l 0.86436,150.660343 -151.378939,0.28806 c -2.9964621,0 -5.8776753,1.1523 -8.0097732,3.284 -2.1320978,2.13172 -3.34220728,4.95479 -3.28458347,8.00834 L 4.7601167e-4,216.9277 c 0,3.11115 1.21010948833,5.93423 3.28458358833,8.00834 2.0168488,2.01648 4.8404381,3.3416 8.0097724,3.28398 l 150.860338,-0.34569 -0.23051,150.8332 c 0,3.11114 1.2101,5.93423 3.28461,8.00831 2.01683,2.01649 4.8404,3.34162 8.00975,3.28402 l 43.21821,-0.11523 c 2.99646,0 5.87767,-1.1523 8.00978,-3.28401 2.01684,-2.13171 3.16933,-5.01239 3.16933,-8.00832 z"
       id="path2"
       style="stroke-width:0.999991;fill:#ffffff" /></g></svg>
