<?xml version="1.0" encoding="UTF-8" standalone="no"?>
<svg
   height="390"
   id="Layer_1"
   version="1.1"
   viewBox="0 0 390 390"
   width="390"
   xml:space="preserve"
   sodipodi:docname="close.svg"
   inkscape:export-filename="close.png"
   inkscape:export-xdpi="304.8"
   inkscape:export-ydpi="304.8"
   inkscape:version="1.2 (dc2aedaf03, 2022-05-15)"
   xmlns:inkscape="http://www.inkscape.org/namespaces/inkscape"
   xmlns:sodipodi="http://sodipodi.sourceforge.net/DTD/sodipodi-0.dtd"
   xmlns="http://www.w3.org/2000/svg"
   xmlns:svg="http://www.w3.org/2000/svg"><defs
     id="defs7" /><sodipodi:namedview
     id="namedview5"
     pagecolor="#ffffff"
     bordercolor="#666666"
     borderopacity="1.0"
     inkscape:showpageshadow="2"
     inkscape:pageopacity="0.0"
     inkscape:pagecheckerboard="0"
     inkscape:deskcolor="#d1d1d1"
     showgrid="false"
     inkscape:zoom="1.3037281"
     inkscape:cx="107.76787"
     inkscape:cy="251.5862"
     inkscape:window-width="1920"
     inkscape:window-height="1137"
     inkscape:window-x="1912"
     inkscape:window-y="-8"
     inkscape:window-maximized="1"
     inkscape:current-layer="Layer_1" /><path
     d="M 383.6,327.1 252.4,195.4 383.9,65.4 c 5.4,-5.4 5.4,-14.2 0,-19.6 L 346.5,8.2 c -2.6,-2.6 -6.1,-4 -9.8,-4 -3.7,0 -7.2,1.5 -9.8,4 L 196,137.8 64.9,8.3 c -2.6,-2.6 -6.1,-4 -9.8,-4 -3.7,0 -7.2,1.5 -9.8,4 L 8,45.9 C 2.6,51.3 2.6,60.1 8,65.5 L 139.5,195.5 8.4,327.1 c -2.6,2.6 -4.1,6.1 -4.1,9.8 0,3.7 1.4,7.2 4.1,9.8 l 37.4,37.6 c 2.7,2.7 6.2,4.1 9.8,4.1 3.5,0 7.1,-1.3 9.8,-4.1 L 196,253.1 326.7,384.2 c 2.7,2.7 6.2,4.1 9.8,4.1 3.5,0 7.1,-1.3 9.8,-4.1 l 37.4,-37.6 c 2.6,-2.6 4.1,-6.1 4.1,-9.8 -0.1,-3.6 -1.6,-7.1 -4.2,-9.7 z"
     id="path2" /></svg>
