<?xml version="1.0" encoding="UTF-8" standalone="no"?>
<!-- Svg Vector Icons : http://www.onlinewebfonts.com/icon -->

<svg
   version="1.1"
   x="0px"
   y="0px"
   viewBox="0 0 574 574"
   enable-background="new 0 0 1000 1000"
   xml:space="preserve"
   id="svg14"
   sodipodi:docname="cog.svg"
   width="574"
   height="574"
   inkscape:export-filename="cog.png"
   inkscape:export-xdpi="304.8"
   inkscape:export-ydpi="304.8"
   inkscape:version="1.2 (dc2aedaf03, 2022-05-15)"
   xmlns:inkscape="http://www.inkscape.org/namespaces/inkscape"
   xmlns:sodipodi="http://sodipodi.sourceforge.net/DTD/sodipodi-0.dtd"
   xmlns="http://www.w3.org/2000/svg"
   xmlns:svg="http://www.w3.org/2000/svg"><defs
   id="defs18" /><sodipodi:namedview
   id="namedview16"
   pagecolor="#ffffff"
   bordercolor="#666666"
   borderopacity="1.0"
   inkscape:showpageshadow="2"
   inkscape:pageopacity="0.0"
   inkscape:pagecheckerboard="0"
   inkscape:deskcolor="#d1d1d1"
   showgrid="false"
   inkscape:zoom="0.6675088"
   inkscape:cx="628.45613"
   inkscape:cy="605.23547"
   inkscape:window-width="1920"
   inkscape:window-height="1137"
   inkscape:window-x="1912"
   inkscape:window-y="-8"
   inkscape:window-maximized="1"
   inkscape:current-layer="layer1" />
<metadata
   id="metadata2"> Svg Vector Icons : http://www.onlinewebfonts.com/icon </metadata>

<g
   inkscape:groupmode="layer"
   id="layer2"
   inkscape:label="background"
   sodipodi:insensitive="true"
   style="display:none"><rect
     style="opacity:0.992;fill:#008000;stroke:#008000;stroke-width:7.55906;stroke-linejoin:round;paint-order:fill markers stroke"
     id="rect368"
     width="566.28467"
     height="569.28088"
     x="5.9924297"
     y="4.4943228" /></g><g
   inkscape:groupmode="layer"
   id="layer1"
   inkscape:label="drawing"
   style="display:inline;fill:#ffffff"><g
     id="g308"
     transform="translate(-212,-216)"
     style="fill:#ffffff"><g
       transform="matrix(0.1,0,0,-0.1,0,511)"
       id="g10"
       style="fill:#ffffff"><path
         d="m 4566,2868.5 c -111.2,-67.2 -145.9,-136.6 -189.9,-393.8 -23.2,-127.4 -46.3,-236.3 -51,-240.9 -4.6,-4.6 -97.3,-44 -201.5,-90.3 l -194.6,-83.4 -157.5,113.5 c -375.3,266.4 -433.2,257.1 -803.8,-118.1 -326.6,-335.9 -333.5,-391.5 -88,-741.2 L 3009.4,1129 2928.3,927.5 2847.2,726 2627.1,686.6 C 2370,640.3 2279.6,600.9 2217.1,499 c -41.7,-67.2 -44,-108.9 -39.4,-449.4 6.9,-363.6 9.3,-375.2 64.9,-435.5 81.1,-88 150.6,-118.1 335.9,-148.2 291.9,-48.7 284.9,-44 315,-136.7 13.9,-46.3 53.3,-136.7 83.4,-196.9 l 55.6,-111.2 -113.5,-157.6 c -275.7,-375.3 -261.7,-461 118.1,-829.3 312.7,-301.1 400.8,-310.4 722.7,-78.7 l 189.9,139 194.6,-78.8 194.6,-78.8 41.7,-238.6 c 44,-257.1 81.1,-328.9 203.9,-400.7 69.5,-41.7 120.4,-46.3 414.6,-46.3 467.9,0 528.1,39.4 593,377.6 62.5,324.3 44,298.8 266.4,389.2 l 201.5,81.1 178.4,-127.4 c 333.6,-238.6 419.3,-229.3 732,71.8 268.7,259.4 308.1,322 294.2,477.2 -9.2,101.9 -32.4,150.6 -150.6,317.3 l -139,194.6 62.6,141.3 c 34.7,76.4 74.1,166.8 88,199.2 20.9,53.3 44,62.5 206.2,88 268.7,41.7 368.3,85.7 435.5,183 55.6,81.1 57.9,99.6 57.9,442.4 0,317.3 -4.6,363.7 -46.3,430.8 -60.2,99.6 -150.6,139 -403,183 -113.5,20.8 -210.8,41.7 -217.7,46.3 -13.9,16.2 -166.8,368.3 -166.8,389.1 0,11.6 53.3,95 120.4,185.3 250.2,352.1 238.6,433.2 -113.5,771.3 -132,127.4 -259.4,238.6 -280.3,247.9 -20.8,9.3 -83.4,16.2 -136.7,16.2 -83.4,2.3 -129.7,-18.5 -317.3,-145.9 -120.4,-81.1 -224.7,-143.6 -231.6,-136.7 -7,6.9 -97.3,46.3 -203.9,90.4 l -192.2,76.4 -39.4,236.3 c -67.1,403 -115.8,437.8 -609.2,437.8 -303.6,0 -356.9,-6.9 -421.7,-46.3 z m 745.8,-514.3 c 23.2,-143.6 53.3,-284.9 71.8,-310.4 18.5,-32.4 90.3,-69.5 185.3,-101.9 85.7,-25.5 227,-85.7 315,-129.7 90.4,-46.3 178.4,-74.1 201.5,-67.2 23.1,6.9 143.6,85.7 271,173.7 l 227,162.1 192.2,-189.9 c 106.5,-104.2 192.3,-203.8 192.3,-220.1 0,-16.2 -71.8,-132 -162.1,-254.8 -88,-125.1 -162.1,-238.6 -162.1,-254.8 0,-18.5 34.7,-101.9 78.8,-187.6 41.7,-85.7 99.6,-224.7 127.4,-310.4 30.1,-85.7 64.8,-164.5 78.7,-173.7 16.2,-9.3 152.9,-39.4 305.8,-64.9 l 277.9,-48.6 7,-291.9 7,-291.8 -273.3,-41.7 c -308.1,-48.7 -354.4,-76.4 -398.4,-240.9 -16.2,-57.9 -69.5,-189.9 -120.4,-294.2 -55.6,-118.1 -83.4,-206.1 -74.1,-231.6 11.6,-32.4 215.4,-333.5 315,-463.3 16.2,-20.8 -27.8,-81.1 -148.2,-206.1 -95,-97.3 -189.9,-185.3 -210.8,-196.9 -30.1,-16.2 -92.7,16.2 -268.7,141.3 -125.1,88 -250.2,162.1 -275.7,162.1 -25.5,0 -134.3,-41.7 -240.9,-90.3 -106.6,-51 -238.6,-101.9 -294.2,-118.2 -53.3,-13.9 -111.2,-48.6 -129.7,-76.4 -18.5,-27.8 -51,-150.6 -71.8,-271 -18.5,-120.5 -41.7,-243.2 -46.3,-271 -11.6,-50.9 -20.8,-53.3 -289.5,-53.3 -150.6,0 -280.3,9.3 -287.2,18.5 -7,11.6 -32.4,141.3 -57.9,291.9 -25.5,150.6 -57.9,287.2 -71.8,305.8 -16.2,16.2 -85.7,46.3 -157.5,67.2 -71.8,20.9 -199.2,74.1 -287.2,118.2 -85.7,44 -176,78.7 -199.2,78.7 -25.5,0 -148.3,-71.8 -273.3,-162.1 -127.4,-88 -240.9,-162.1 -252.5,-162.1 -13.9,0 -111.2,85.7 -215.4,192.2 l -192.3,192.3 155.2,217.7 c 83.4,120.4 162.1,240.9 171.4,266.4 13.9,37.1 -4.6,99.6 -67.2,234 -48.7,99.6 -106.6,238.6 -127.4,305.7 -23.2,67.2 -55.6,134.4 -71.8,152.9 -16.2,16.2 -113.5,44 -213.1,57.9 -99.6,16.2 -229.3,39.4 -289.5,53.3 l -111.2,23.2 V 65.7 c 0,150.6 9.3,280.3 18.5,287.2 9.3,4.6 115.8,27.8 236.3,46.3 377.6,64.9 370.6,60.2 428.5,261.7 20.9,71.8 74.1,201.5 118.1,289.6 44,85.7 78.7,173.7 78.7,194.6 0,20.8 -71.8,141.3 -162.1,266.4 -88,125.1 -162.1,240.9 -162.1,257.1 0,34.7 347.5,389.1 382.2,389.1 16.2,0 129.7,-71.8 254.8,-162.1 125.1,-88 247.9,-162.1 271,-162.1 23.1,0 97.3,30.1 164.5,67.2 64.9,37.1 201.5,97.3 301.1,132 99.6,34.7 189.9,78.7 199.2,99.6 11.6,20.8 37.1,145.9 57.9,280.3 23.2,134.3 44,257.1 48.6,273.3 6.9,20.9 88,27.8 296.5,27.8 h 287.3 z"
         id="path6"
         style="fill:#ffffff" /><path
         d="m 4677.2,1256.3 c -192.3,-51 -379.9,-162.1 -530.5,-315 C 3905.8,702.7 3790,415.5 3790,65.7 c 2.3,-567.5 400.8,-1049.3 965.9,-1169.8 203.8,-41.7 282.6,-41.7 486.4,0 356.7,76.4 685.7,324.3 838.5,637 340.5,697.2 -30.1,1533.4 -769,1725.7 -169,44 -467.9,41.7 -634.6,-2.3 z M 5374.4,918.1 C 5745,744.4 5974.3,320.5 5904.8,-64 5833,-453.2 5538.8,-745 5142.7,-819.2 4552.1,-928 3991.5,-372.1 4095.7,223.2 c 57.9,331.3 259.4,581.4 576.8,715.8 111.2,46.3 162.1,53.3 349.8,48.6 180.7,-7 243.2,-18.5 352.1,-69.5 z"
         id="path8"
         style="fill:#ffffff" /></g></g></g></svg>
