<?xml version="1.0" encoding="UTF-8" standalone="no"?>
<!-- Created with Inkscape (http://www.inkscape.org/) -->

<svg
   width="128.679mm"
   height="94.316002mm"
   viewBox="0 0 128.67901 94.31601"
   version="1.1"
   id="svg5"
   xml:space="preserve"
   inkscape:version="1.2 (dc2aedaf03, 2022-05-15)"
   sodipodi:docname="people.svg"
   inkscape:export-filename="people.png"
   inkscape:export-xdpi="304.8"
   inkscape:export-ydpi="304.8"
   xmlns:inkscape="http://www.inkscape.org/namespaces/inkscape"
   xmlns:sodipodi="http://sodipodi.sourceforge.net/DTD/sodipodi-0.dtd"
   xmlns="http://www.w3.org/2000/svg"
   xmlns:svg="http://www.w3.org/2000/svg"><sodipodi:namedview
     id="namedview7"
     pagecolor="#ffffff"
     bordercolor="#666666"
     borderopacity="1.0"
     inkscape:showpageshadow="2"
     inkscape:pageopacity="0"
     inkscape:pagecheckerboard="0"
     inkscape:deskcolor="#d1d1d1"
     inkscape:document-units="mm"
     showgrid="false"
     inkscape:zoom="1.6819304"
     inkscape:cx="169.15087"
     inkscape:cy="153.98972"
     inkscape:window-width="1920"
     inkscape:window-height="1137"
     inkscape:window-x="1912"
     inkscape:window-y="-8"
     inkscape:window-maximized="1"
     inkscape:current-layer="layer3" /><defs
     id="defs2" /><g
     inkscape:groupmode="layer"
     id="layer3"
     inkscape:label="background"
     style="display:none;stroke-width:1.41084"
     transform="matrix(1,0,0,0.50239236,0,0.22140458)"
     sodipodi:insensitive="true"><rect
       style="opacity:0.992;fill:#008000;stroke:#ff0000;stroke-width:0.70542;stroke-linejoin:round;stroke-opacity:0.575145;paint-order:fill markers stroke"
       id="rect4160"
       width="128.14212"
       height="185.98407"
       x="0.44493809"
       y="0.44493806" /></g><g
     inkscape:groupmode="layer"
     id="layer2"
     inkscape:label="drawing"
     transform="translate(60.99437,63.648663)"
     style="display:inline"><path
       style="display:inline;opacity:0.992;fill:#ffffff;stroke:#ffffff;stroke-width:1.99999;stroke-linejoin:round;paint-order:fill markers stroke"
       id="path383"
       sodipodi:type="arc"
       sodipodi:cx="-25.039799"
       sodipodi:cy="-38.874779"
       sodipodi:rx="21.36377"
       sodipodi:ry="21.36377"
       sodipodi:start="2.9721112"
       sodipodi:end="2.9698844"
       sodipodi:open="true"
       sodipodi:arc-type="arc"
       d="M -46.097476,-35.271325 A 21.36377,21.36377 0 0 1 -28.654975,-59.930447 21.36377,21.36377 0 0 1 -3.9861467,-42.501676 21.36377,21.36377 0 0 1 -21.401182,-17.823149 21.36377,21.36377 0 0 1 -46.0894,-35.224443"
       sodipodi:insensitive="true" /><path
       style="display:inline;opacity:0.992;fill:#ffffff;stroke:#ffffff;stroke-width:1.99999;stroke-linejoin:round;paint-order:fill markers stroke"
       id="path383-1"
       sodipodi:type="arc"
       sodipodi:cx="25.683058"
       sodipodi:cy="-38.7938"
       sodipodi:rx="21.36377"
       sodipodi:ry="21.36377"
       sodipodi:start="2.9721112"
       sodipodi:end="2.9698844"
       sodipodi:open="true"
       sodipodi:arc-type="arc"
       d="M 4.6253806,-35.190347 A 21.36377,21.36377 0 0 1 22.067882,-59.849468 21.36377,21.36377 0 0 1 46.73671,-42.420698 21.36377,21.36377 0 0 1 29.321675,-17.742171 21.36377,21.36377 0 0 1 4.633457,-35.143464"
       sodipodi:insensitive="true" /><path
       style="display:inline;fill:#ffffff;stroke-width:1"
       d="m -54.764636,28.741432 c -0.834189,-0.186147 -1.510116,-0.609285 -2.408701,-1.507871 -1.666674,-1.666674 -1.993093,-2.997776 -1.746518,-7.122117 0.530277,-8.869651 3.415011,-15.5278183 9.260062,-21.3728687 4.62028,-4.6202783 10.036021,-7.5020457 16.360943,-8.7058125 5.072631,-0.9654278 13.614669,-0.7734218 18.250589,0.4102338 3.464357,0.8845285 3.410464,0.7685193 1.382144,2.9752262 -2.314003,2.5175209 -5.329735,7.06263896 -6.968992,10.5032275 -2.439736,5.1206901 -3.723386,9.8456397 -4.276897,15.7427077 -0.352565,3.756202 -0.186928,5.841521 0.70929,8.929687 0.126904,0.437285 -0.686486,0.461447 -14.633977,0.434687 -8.542104,-0.01638 -15.257227,-0.137428 -15.927943,-0.2871 z m 45.0592996,-0.05793 c -1.6295346,-0.510193 -2.6974556,-1.436563 -3.4653006,-3.005979 -0.656979,-1.342818 -0.68422,-1.559874 -0.524124,-4.176445 0.953789,-15.588442 11.7539661,-28.0363094 27.232056,-31.3866168 2.498656,-0.5408482 3.422459,-0.5869042 11.968075,-0.5966882 7.786623,-0.0089 9.658799,0.06418 11.763612,0.459274 13.515707,2.5370367 24.039837,12.585054 27.117211,25.890431 0.647218,2.798315 0.968383,7.20535 0.637521,8.748095 -0.412321,1.92259 -2.228463,3.729932 -4.165544,4.145362 -2.11877,0.454395 -69.0996304,0.380891 -70.5635064,-0.07743 z"
       id="path407"
       sodipodi:nodetypes="sssssssssssssssssssssss" /></g></svg>
