<?xml version="1.0" encoding="UTF-8" standalone="no"?>
<!-- Created with Inkscape (http://www.inkscape.org/) -->

<svg
   width="80.679001mm"
   height="92.316002mm"
   viewBox="0 0 80.67901 92.31601"
   version="1.1"
   id="svg5"
   xml:space="preserve"
   inkscape:version="1.2 (dc2aedaf03, 2022-05-15)"
   sodipodi:docname="person.svg"
   inkscape:export-filename="person.png"
   inkscape:export-xdpi="304.8"
   inkscape:export-ydpi="304.8"
   xmlns:inkscape="http://www.inkscape.org/namespaces/inkscape"
   xmlns:sodipodi="http://sodipodi.sourceforge.net/DTD/sodipodi-0.dtd"
   xmlns="http://www.w3.org/2000/svg"
   xmlns:svg="http://www.w3.org/2000/svg"><sodipodi:namedview
     id="namedview7"
     pagecolor="#ffffff"
     bordercolor="#666666"
     borderopacity="1.0"
     inkscape:showpageshadow="2"
     inkscape:pageopacity="0"
     inkscape:pagecheckerboard="0"
     inkscape:deskcolor="#d1d1d1"
     inkscape:document-units="mm"
     showgrid="false"
     inkscape:zoom="1.6819304"
     inkscape:cx="191.74396"
     inkscape:cy="153.98973"
     inkscape:window-width="1920"
     inkscape:window-height="1137"
     inkscape:window-x="1912"
     inkscape:window-y="-8"
     inkscape:window-maximized="1"
     inkscape:current-layer="layer3" /><defs
     id="defs2" /><g
     inkscape:groupmode="layer"
     id="layer3"
     inkscape:label="background"
     style="display:none;stroke-width:1.41084"
     transform="matrix(1,0,0,0.50239236,0,0.22140458)"
     sodipodi:insensitive="true"><rect
       style="opacity:0.992;fill:#008000;stroke:#ff0000;stroke-width:0.70542;stroke-linejoin:round;stroke-opacity:0.575145;paint-order:fill markers stroke"
       id="rect4160"
       width="80.396477"
       height="184.10243"
       x="0.40674338"
       y="-0.49296853" /></g><g
     inkscape:groupmode="layer"
     id="layer2"
     inkscape:label="drawing"
     transform="translate(60.99437,63.648663)"
     style="display:inline"><path
       style="display:inline;opacity:0.992;fill:#ffffff;stroke:#ffffff;stroke-width:1.99999;stroke-linejoin:round;paint-order:fill markers stroke"
       id="path383-1"
       sodipodi:type="arc"
       sodipodi:cx="-20.354443"
       sodipodi:cy="-39.852135"
       sodipodi:rx="21.36377"
       sodipodi:ry="21.36377"
       sodipodi:start="2.9721112"
       sodipodi:end="2.9698844"
       sodipodi:open="true"
       sodipodi:arc-type="arc"
       d="M -41.41212,-36.248681 A 21.36377,21.36377 0 0 1 -23.969619,-60.907803 21.36377,21.36377 0 0 1 0.69920947,-43.479032 21.36377,21.36377 0 0 1 -16.715825,-18.800505 21.36377,21.36377 0 0 1 -41.404043,-36.201799" /><path
       style="display:inline;fill:#ffffff;stroke-width:1"
       d="m -55.74286,27.625168 c -1.629535,-0.510193 -2.697456,-1.436563 -3.465301,-3.005979 -0.656979,-1.342818 -0.68422,-1.559874 -0.524124,-4.176445 0.953789,-15.5884414 11.753971,-28.0363088 27.232066,-31.386616 2.498656,-0.540849 3.422459,-0.586905 11.968073,-0.596689 7.786624,-0.0089 9.6588,0.06418 11.7636123,0.459274 13.5157008,2.5370373 24.0398287,12.5850546 27.1172027,25.890431 0.647218,2.798315 0.968383,7.20535 0.637521,8.748095 -0.412321,1.92259 -2.228463,3.729932 -4.165544,4.145362 -2.11877,0.454395 -69.099629,0.380891 -70.563506,-0.07743 z"
       id="path407"
       sodipodi:nodetypes="sssssssssss" /></g></svg>
