<?xml version="1.0" encoding="UTF-8" standalone="no"?>
<svg
   viewBox="0 0 283.573 471.573"
   version="1.1"
   id="svg1415"
   sodipodi:docname="player.svg"
   inkscape:export-filename="player.png"
   inkscape:export-xdpi="304.8"
   inkscape:export-ydpi="304.8"
   inkscape:version="1.2 (dc2aedaf03, 2022-05-15)"
   width="283.573"
   height="471.573"
   xmlns:inkscape="http://www.inkscape.org/namespaces/inkscape"
   xmlns:sodipodi="http://sodipodi.sourceforge.net/DTD/sodipodi-0.dtd"
   xmlns="http://www.w3.org/2000/svg"
   xmlns:svg="http://www.w3.org/2000/svg">
  <defs
     id="defs1419" />
  <sodipodi:namedview
     id="namedview1417"
     pagecolor="#ffffff"
     bordercolor="#666666"
     borderopacity="1.0"
     inkscape:showpageshadow="2"
     inkscape:pageopacity="0.0"
     inkscape:pagecheckerboard="0"
     inkscape:deskcolor="#d1d1d1"
     showgrid="false"
     inkscape:zoom="1.0009055"
     inkscape:cx="334.19738"
     inkscape:cy="217.80278"
     inkscape:window-width="1920"
     inkscape:window-height="1137"
     inkscape:window-x="1912"
     inkscape:window-y="-8"
     inkscape:window-maximized="1"
     inkscape:current-layer="layer2" />
  <g
     inkscape:groupmode="layer"
     id="layer2"
     inkscape:label="background"
     style="display:none;stroke-width:3.06127"
     transform="matrix(0.39594182,0,0,0.26950465,-1.2209335,1.2658605)"
     sodipodi:insensitive="true">
    <rect
       style="opacity:0.992;fill:#008000;stroke:#ff0000;stroke-width:5.78502;stroke-linejoin:round;stroke-opacity:0.575145;paint-order:fill markers stroke"
       id="rect652"
       width="711.67377"
       height="1749.5243"
       x="4.3857727"
       y="2.2959652" />
  </g>
  <g
     inkscape:groupmode="layer"
     id="layer1"
     inkscape:label="drawing"
     style="display:inline">
    <path
       d="m 272.06904,95.413095 c -8.412,-3.81 -18.317,-0.078 -22.126,8.331005 l -18.123,40.016 c 0,0 -44.27,17.973 -52.074,20.502 -15.133,4.902 -33.125,3.368 -60.825,10.715 l -52.499,12.952 -36.863,-27.521 c 6.94,-12.046 18.646,-32.375 21.573,-37.514 3.167,-5.563 10.288,-13.085 13.889,-16.727 7.55,1.135 15.516,0.132 23.289,-2.929 12.257,-4.825005 22.913,-14.338005 30.005,-26.791005 7.085,-12.447 9.828,-26.466 7.721,-39.475 -2.213,-13.655 -9.44,-24.597 -20.351,-30.8099997 -6.019,-3.425 -12.655,-5.16299998 -19.721,-5.16299998 -5.682,0 -11.457,1.13999998 -17.165,3.38799998 -12.263,4.828 -22.918,14.3419997 -30.003,26.7889997 -7.088,12.445 -9.831,26.465 -7.724,39.476 1.333,8.229 4.571,15.651 9.386,21.542 -1.241,4.85 -3.99,14.627005 -7.312,20.461005 -3.004,5.272 -18.659,32.452 -23.803,41.385 l -0.351,0.606 c -1.228,0.649 -2.379,1.494 -3.393,2.554 -5.121,5.344 -4.945,13.831 0.402,18.956 l 45.766,43.875 c 3.274,3.097 7.945,4.764 12.746,4.022 l 2.108,-0.326 45.438,-7 12.762,94.067 -33.156,138.673 c -1.743,9.216 3.386,18.608 12.487,21.922 10.117,3.685 21.305,-1.529 24.989,-11.646 l 47,-115.054 18.374,38.834 -13.178,66.494 c -2.051,10.775 6.527,19.628 16.88,21.263 10.945,1.727 20.455,-5.738 22.942,-16.689 l 18.893,-72.782 c 0.48,-3.111 0.211,-6.465 -0.97,-9.623 l -0.668,-1.789 -18.589,-49.742 -16.77,-122.101 49.791,-22.282 1.363,-0.61 c 4.075,-1.842 7.43,-5.275 9.047,-9.821 l 17.662,-49.594 c 2.857,-8.09 -0.886,-17.225005 -8.849,-20.834005 z m -219.199,-56.221 c 7.604,-13.356 20.569,-21.987 33.031,-21.987 4.271,0 8.23,1.022 11.769,3.034 14.161,8.064 17.106,29.685 6.565,48.197 -7.601,13.355 -20.566,21.985 -33.03,21.985 -4.271,0 -8.231,-1.021 -11.767,-3.035 -6.763,-3.849 -11.2,-10.927 -12.494,-19.929 -1.322,-9.192 0.782,-19.231 5.926,-28.265 z"
       id="path1406"
       style="fill:#ffffff;fill-opacity:1" />
    <path
       d="m 106.09404,120.0601 c -2.545,21.723 13.005,41.388 34.728,43.93 21.721,2.542 41.39,-13.008 43.931,-34.73 2.54,-21.72 -13.011,-41.389005 -34.732,-43.929005 -21.722,-2.543 -41.39,13.007 -43.927,34.729005 z"
       id="path1408"
       style="fill:#ffffff" />
    <circle
       cx="245.72704"
       cy="57.284096"
       r="14.961"
       id="circle1410"
       style="fill:#ffffff" />
  </g>
</svg>
