<?xml version="1.0" encoding="UTF-8" standalone="no"?>
<svg
   xmlns:dc="http://purl.org/dc/elements/1.1/"
   xmlns:cc="http://creativecommons.org/ns#"
   xmlns:rdf="http://www.w3.org/1999/02/22-rdf-syntax-ns#"
   xmlns:svg="http://www.w3.org/2000/svg"
   xmlns="http://www.w3.org/2000/svg"
   xmlns:xlink="http://www.w3.org/1999/xlink"
   xmlns:sodipodi="http://sodipodi.sourceforge.net/DTD/sodipodi-0.dtd"
   xmlns:inkscape="http://www.inkscape.org/namespaces/inkscape"
   version="1.1"
   id="svg833"
   width="1209"
   height="1755"
   viewBox="0 0 1209 1755"
   sodipodi:docname="yplayers.svg"
   inkscape:version="1.0.2 (e86c870879, 2021-01-15, custom)">
  <metadata
     id="metadata839">
    <rdf:RDF>
      <cc:Work
         rdf:about="">
        <dc:format>image/svg+xml</dc:format>
        <dc:type
           rdf:resource="http://purl.org/dc/dcmitype/StillImage" />
        <dc:title></dc:title>
      </cc:Work>
    </rdf:RDF>
  </metadata>
  <defs
     id="defs837" />
  <sodipodi:namedview
     pagecolor="#0000ff"
     bordercolor="#666666"
     borderopacity="1"
     objecttolerance="10"
     gridtolerance="10"
     guidetolerance="10"
     inkscape:pageopacity="0"
     inkscape:pageshadow="2"
     inkscape:window-width="1920"
     inkscape:window-height="1137"
     id="namedview835"
     showgrid="false"
     inkscape:zoom="0.43554694"
     inkscape:cx="576.99195"
     inkscape:cy="1159.9671"
     inkscape:window-x="1912"
     inkscape:window-y="-8"
     inkscape:window-maximized="1"
     inkscape:current-layer="layer1"
     inkscape:document-rotation="0"
     inkscape:pagecheckerboard="false" />
  <g
     inkscape:groupmode="layer"
     inkscape:label="Image"
     id="g841"
     sodipodi:insensitive="true"
     style="display:none">
    <image
       sodipodi:absref="C:\Users\Richard\git\github.com\rsmaxwell\players\src\assets\icons\players.png"
       xlink:href="players.png"
       id="image843"
       preserveAspectRatio="none"
       height="1755"
       width="1209" />
  </g>
  <g
     inkscape:groupmode="layer"
     id="layer1"
     inkscape:label="drawing">
    <path
       style="fill:none;stroke:#ffffff;stroke-width:30;stroke-linecap:round;stroke-linejoin:miter;stroke-opacity:1;stroke-miterlimit:4;stroke-dasharray:none"
       d="m 160.00392,836.23825 26.59091,-23.84013 12.37852,-11.4616 4.58464,-9.16928 0.45847,-9.16928 -5.04311,-12.37852 -7.79388,-10.54467 -4.58464,-5.04311 -1.83386,-5.96003 9.16928,-10.54467 11.00314,-15.58777 14.21238,-25.67399 10.54467,-23.84012 9.62774,-24.00627 4.58464,-15.88009 2.29232,-9.16928"
       id="path848" />
    <path
       style="fill:none;stroke:#ffffff;stroke-width:30;stroke-linecap:round;stroke-linejoin:miter;stroke-opacity:1;stroke-miterlimit:4;stroke-dasharray:none"
       d="m 174.67477,599.21238 1.83385,7.33543 5.96003,8.71081 7.79389,3.66771 12.37853,3.66771 15.12931,1.83386 18.79702,-0.91693 19.71395,-1.83385 28.42476,-4.12618 26.59091,-2.29232 23.84013,-1.83385 11.92006,-4.58464 18.33856,3.20924 32.55094,-2.29232 16.96317,-3.20924 16.04623,-11.92007 13.75392,-9.16928 18.33856,-7.33542 15.12931,-2.29232 10.08621,-3.66771 4.12617,-4.58464 -3.20925,-6.41849 -8.25235,-3.66772 -11.92006,5.50157 -12.83699,4.12618 -5.0431,0.45846 -1.83386,-6.87696 1.83386,-15.58777 7.33542,-12.37853 5.96003,-12.37853 13.75392,-13.29545 9.16928,-11.00314 4.12617,-11.46159 -3.66771,-4.12618 -6.41849,-1.83386 -5.96003,6.87696 -14.21239,18.79703 -7.79388,8.25235 -8.71082,11.92006 4.58464,-17.88009 4.12618,-18.79703 -1.83386,-12.83699 -4.12617,-8.25235 c 0,0 -3.66772,2.75079 -5.50157,4.12618 -1.83386,1.37539 -6.4185,15.58777 -6.4185,15.58777 l -5.96003,21.54781 -4.12617,14.21238 0.91692,-14.21238 1.83386,-23.84013 -2.75078,-13.75392 -5.50157,-5.96003 -5.50157,3.66771 -5.0431,16.96317 -1.37539,20.63088 -0.91693,20.63087 -6.87696,-20.63087 -4.58464,-19.71395 -4.58464,-8.71082 h -5.50157 l -5.96003,2.75079 0.91693,12.83699 2.29232,15.12931 0.45846,12.37852 -2.75078,13.75392 -8.25235,20.63088 -8.71082,11.92006 -4.58464,10.08621 1.37539,7.79389 -0.45846,-18.33856 -16.5047,-12.37853 -23.38166,-13.29545 -23.84013,-10.08621 -24.75705,-6.87696 -22.00627,0.45847 -17.8801,2.29231 -13.29545,7.33543 -4.12618,1.83385 -0.45846,0.45847"
       id="path850" />
    <path
       style="fill:none;stroke:#ffffff;stroke-width:30;stroke-linecap:round;stroke-linejoin:miter;stroke-opacity:1;stroke-miterlimit:4;stroke-dasharray:none"
       d="m 441.04232,353.47571 -15.58777,3.66771 -20.63088,5.50156 -19.71395,6.87696 -17.42163,3.66772 -22.46474,4.12617 -18.33855,2.75078 -11.00314,10.54468 -9.16928,12.37852 -12.37852,18.79702 -15.58778,24.29859 -15.12931,22.46474 -18.79702,27.9663 -16.04624,20.63088 -20.17241,23.38166 -15.12931,20.17241 -9.16928,19.71395 -9.62774,18.79702 v 0"
       id="path852" />
    <path
       style="fill:none;stroke:#ffffff;stroke-width:30;stroke-linecap:round;stroke-linejoin:miter;stroke-opacity:1;stroke-miterlimit:4;stroke-dasharray:none"
       d="m 521.73198,902.71552 -14.67085,10.08621 -25.21552,5.0431 -32.09247,0.91693 -25.21552,-2.29232 -33.92633,-8.25235 -41.72022,-16.96317 -37.13558,-18.79702 -38.51098,-22.9232 -22.92319,-12.83699 -22.46474,-6.87696 -19.25548,1.37539 -18.33856,2.29232 -21.08934,3.20925 -9.16928,-0.45846"
       id="path854" />
    <path
       style="fill:none;stroke:#ffffff;stroke-width:30;stroke-linecap:round;stroke-linejoin:miter;stroke-opacity:1;stroke-miterlimit:4;stroke-dasharray:none"
       d="m 722.53919,534.56897 -24.75706,2.29232 -27.50783,4.58464 -20.17242,12.83699 -16.04624,19.71395 -23.84012,34.84326 -22.00627,33.46786 -24.75706,33.46787 -24.29858,40.34483 -16.50471,23.38166 -11.4616,27.9663 -6.41849,24.29859 -2.29232,18.33856 5.96003,19.71395 1.37539,12.83699 -7.79388,19.25549 -5.50157,9.62774 17.88009,17.42163 7.33543,13.75392"
       id="path856" />
    <path
       style="fill:none;stroke:#ffffff;stroke-width:30;stroke-linecap:round;stroke-linejoin:miter;stroke-opacity:1;stroke-miterlimit:4;stroke-dasharray:none"
       d="m 767.46865,441.04232 -16.04624,36.67712 -13.29545,23.38166 -9.16928,22.46473 -6.41849,11.00314"
       id="path858" />
    <path
       style="fill:none;stroke:#ffffff;stroke-width:30;stroke-linecap:round;stroke-linejoin:miter;stroke-opacity:1;stroke-miterlimit:4;stroke-dasharray:none"
       d="m 594.16928,375.02351 23.38166,-6.41849 18.79702,3.66771 21.08934,4.58464 12.837,6.87696 16.04623,13.29545 14.67085,12.37853 12.83699,5.50157 11.92006,12.83699 19.25549,7.33542 13.29545,3.66771 9.16928,2.29232"
       id="path860" />
    <path
       style="fill:none;stroke:#ffffff;stroke-width:30;stroke-linecap:round;stroke-linejoin:miter;stroke-opacity:1;stroke-miterlimit:4;stroke-dasharray:none"
       d="m 590.0431,360.81113 v -18.33856 l 5.96004,-11.92006 12.83699,-9.16928 10.54467,-3.66771 7.79388,1.37539 3.20925,8.25235 -4.58464,12.37853 -9.62774,11.4616 -11.00314,14.21238 -11.00313,9.62774"
       id="path862" />
    <path
       style="fill:none;stroke:#ffffff;stroke-width:30;stroke-linecap:round;stroke-linejoin:miter;stroke-opacity:1;stroke-miterlimit:4;stroke-dasharray:none"
       d="m 441.04232,353.47571 -6.87696,-21.08935 -1.83385,-20.63087 5.50156,-20.63088 10.08621,-14.67085 12.37853,-5.50157 15.12931,1.83386 15.58777,4.58464 14.21238,5.0431 8.71082,1.3754 10.08621,-3.20925 13.29545,-6.4185 14.67085,-4.58464 14.67084,2.75079 12.37853,7.33542 5.96003,10.08621 3.66771,14.67084 1.83386,16.04624 0.91693,12.37853"
       id="path864" />
    <path
       style="fill:none;stroke:#ffffff;stroke-width:30;stroke-linecap:round;stroke-linejoin:miter;stroke-opacity:1;stroke-miterlimit:4;stroke-dasharray:none"
       d="m 591.4185,332.84483 12.83699,-18.33856 13.29545,-24.75705 5.96003,-17.8801 3.66771,-19.25548 -6.87696,-22.00627 -12.37852,-16.96317 -13.75392,-16.04624 -22.46473,-6.41849 -24.75706,2.29232 -20.17241,4.58464 -16.5047,-0.91693 -17.8801,-1.83386 -13.75392,-3.66771 h -17.88009 l -12.83699,5.50157 c 0,0 -12.37853,12.83699 -12.83699,14.67085 -0.45847,1.83385 -3.20925,20.17241 -3.20925,20.17241 l -6.41849,23.84012 v 24.29859 l 2.75078,18.79703 3.66771,22.46473"
       id="path866" />
    <path
       style="font-variation-settings:normal;opacity:1;vector-effect:none;fill:none;fill-opacity:1;stroke:#ffffff;stroke-width:30;stroke-linecap:round;stroke-linejoin:miter;stroke-miterlimit:4;stroke-dasharray:none;stroke-dashoffset:0;stroke-opacity:1;stop-color:#000000;stop-opacity:1"
       d="m 764.25941,451.12853 16.5047,-0.45847 21.08934,3.66771 24.75705,5.50157 26.13245,9.16928 18.79702,6.4185 26.59091,4.12617 31.17555,1.37539 29.80015,-3.20924 28.42477,-10.54467 22.00625,-8.25236 11.4616,-0.45846 19.714,2.29232 15.1293,6.4185 12.3785,12.83699 5.0431,13.29545 -3.2092,24.75705 -4.5847,10.08621 -16.5047,3.20925 -9.6277,-2.75079 -9.6278,-16.04623 -0.9169,-19.25549 11.4616,-15.12931 16.0462,-6.87696"
       id="path868" />
    <path
       style="font-variation-settings:normal;opacity:1;vector-effect:none;fill:none;fill-opacity:1;stroke:#ffffff;stroke-width:30;stroke-linecap:round;stroke-linejoin:miter;stroke-miterlimit:4;stroke-dasharray:none;stroke-dashoffset:0;stroke-opacity:1;stop-color:#000000;stop-opacity:1"
       d="m 1048.9655,531.35972 -22.9232,6.41849 c 0,0 -16.9631,-1.37539 -19.7139,-1.37539 -2.7508,0 -24.75708,-5.96003 -27.0494,-5.96003 -2.29232,0 -28.42477,-1.83386 -28.42477,-1.83386 l -29.80015,3.20925 -32.55094,4.58464 -30.71709,5.04311 -29.80016,5.0431 -33.46786,0.91693 -28.88323,-3.20925 c 0,0 -17.8801,-6.87696 -19.71395,-6.87696 -1.83386,0 -17.8801,-6.4185 -17.8801,-6.4185"
       id="path870" />
    <path
       style="font-variation-settings:normal;opacity:1;vector-effect:none;fill:none;fill-opacity:1;stroke:#ffffff;stroke-width:30;stroke-linecap:round;stroke-linejoin:miter;stroke-miterlimit:4;stroke-dasharray:none;stroke-dashoffset:0;stroke-opacity:1;stop-color:#000000;stop-opacity:1"
       d="m 441.04232,353.47571 6.4185,16.5047 11.00313,28.42476 11.92006,25.67398 11.92007,17.42163 11.00313,5.50157 16.5047,0.91693 c 0,0 11.00314,-4.58464 13.75392,-4.58464 2.75078,0 17.8801,-12.83699 17.8801,-12.83699 l 10.54467,-10.54467 c 0,0 10.0862,-9.16928 13.29545,-11.92006 3.20925,-2.75079 9.62774,-13.29546 14.67085,-15.12931 5.0431,-1.83386 14.21238,-17.8801 14.21238,-17.8801 v 0"
       id="path872" />
    <path
       style="font-variation-settings:normal;opacity:1;vector-effect:none;fill:none;fill-opacity:1;stroke:#ffffff;stroke-width:30;stroke-linecap:round;stroke-linejoin:miter;stroke-miterlimit:4;stroke-dasharray:none;stroke-dashoffset:0;stroke-opacity:1;stop-color:#000000;stop-opacity:1"
       d="m 169.1732,836.69671 -8.71082,15.12931 -5.0431,16.04624 -0.45846,20.17241 c 0,0 0.91692,20.17242 0.91692,22.00627 0,1.83386 4.58464,12.83699 4.58464,12.83699 l 5.04311,11.4616 -2.29232,14.67085 -8.25235,19.25548 -11.4616,19.25549 -10.08621,19.25545 -7.33542,24.2986 -1.83386,32.551 1.83386,35.3017 2.75078,28.4248 5.96003,31.1755 3.20925,21.5478 0.45846,19.714 12.83699,-14.6709 19.71395,-4.5846 26.59091,-6.877 24.29859,-0.9169 21.54781,4.5846 19.71395,10.5447 20.63088,12.3785 11.92006,10.0862 5.50157,13.9201 -0.91693,9.4616 -8.25235,16.5047 -12.37853,6.877 -11.00314,4.1261"
       id="path874" />
    <path
       style="font-variation-settings:normal;opacity:1;vector-effect:none;fill:none;fill-opacity:1;stroke:#ffffff;stroke-width:30;stroke-linecap:round;stroke-linejoin:miter;stroke-miterlimit:4;stroke-dasharray:none;stroke-dashoffset:0;stroke-opacity:1;stop-color:#000000;stop-opacity:1"
       d="m 300.29389,1233.7265 8.25235,-17.8801 4.58464,-29.8002 2.29232,-32.0924 7.79388,-36.2187 12.837,-27.5078 17.88009,-13.7539 7.33542,-4.1262 8.71082,4.5846 c 0,0 9.16928,13.2955 9.16928,16.0463 0,2.7507 10.0862,24.2985 10.0862,26.1324 0,1.8339 4.58464,28.4248 4.58464,28.4248 l -0.45846,35.7602 -2.75078,32.5509 -5.04311,30.2586 -7.33542,31.1756 c 0,0 18.79702,-10.0862 20.63088,-11.0032 1.83385,-0.9169 38.96943,-27.9663 38.96943,-27.9663 l 22.46474,-8.2523 31.17554,-7.3354 28.42477,-2.2924 16.96317,0.917 20.17241,-7.3355 -10.54467,-9.1692 -7.79389,-17.8801 4.12618,-29.3417 11.00313,-24.2986 10.08621,-22.9232 2.75078,-31.1756 -13.29545,-33.9263 -14.21238,-38.9694 -12.37853,-37.59407 -8.25235,-31.63402 -5.96003,-24.75705"
       id="path876" />
    <path
       style="font-variation-settings:normal;opacity:1;vector-effect:none;fill:none;fill-opacity:1;stroke:#ffffff;stroke-width:30;stroke-linecap:round;stroke-linejoin:miter;stroke-miterlimit:4;stroke-dasharray:none;stroke-dashoffset:0;stroke-opacity:1;stop-color:#000000;stop-opacity:1"
       d="m 398.86364,1268.5698 -1.3754,29.3416 5.50157,29.3417 6.4185,37.1356 7.79388,53.6403 1.3754,42.1787 -3.66771,40.3448 -7.33543,34.8433 11.92006,2.7508 26.13245,0.9169 19.71395,-5.0431 c 0,0 11.00313,-3.2093 11.92006,-5.5016 0.91693,-2.2923 10.54467,-39.4279 10.54467,-39.4279 l 16.04624,-54.5572 12.37853,-57.308 10.54467,-48.5972 2.29232,-43.554 5.0431,-38.0526 2.75079,-25.6739"
       id="path878" />
    <path
       style="font-variation-settings:normal;opacity:1;vector-effect:none;fill:none;fill-opacity:1;stroke:#ffffff;stroke-width:30;stroke-linecap:round;stroke-linejoin:miter;stroke-miterlimit:4;stroke-dasharray:none;stroke-dashoffset:0;stroke-opacity:1;stop-color:#000000;stop-opacity:1"
       d="m 407.57445,1535.3958 c 0,0 -15.12931,11.92 -12.37852,16.9631 2.75078,5.0431 10.0862,10.5447 10.0862,10.5447 l 27.9663,-3.2092 25.67398,2.2923 c 0,0 8.71082,1.8338 9.62775,-0.4585 0.91693,-2.2923 7.33542,-22.9232 7.33542,-22.9232 l 2.29232,-7.3354"
       id="path880" />
    <path
       style="font-variation-settings:normal;opacity:1;vector-effect:none;fill:none;fill-opacity:1;stroke:#ffffff;stroke-width:30;stroke-linecap:round;stroke-linejoin:miter;stroke-miterlimit:4;stroke-dasharray:none;stroke-dashoffset:0;stroke-opacity:1;stop-color:#000000;stop-opacity:1"
       d="m 398.40517,1565.1959 -5.50156,3.6677 c 0,0 -3.20925,22.4648 -4.12618,24.2986 -0.91693,1.8339 -3.66771,44.471 -3.66771,44.471 l -4.12618,7.7939 5.96003,7.3354 47.22179,8.7109 c 0,0 56.39107,16.0462 59.14185,16.5047 2.75078,0.4584 39.4279,11.92 39.4279,11.92 0,0 38.51097,8.2524 41.26176,8.2524 2.75078,0 20.63087,-2.7508 20.63087,-2.7508 0,0 13.75392,-4.5847 13.75392,-7.7939 0,-3.2092 2.29232,-14.2124 0.45847,-17.4216 -1.83386,-3.2093 -14.67085,-23.3817 -14.67085,-23.3817 l -26.13245,-16.9632 -27.9663,-12.3785 -24.75705,-24.757 -21.08934,-21.0894 -21.08934,-11.4616"
       id="path882" />
    <path
       style="font-variation-settings:normal;opacity:1;vector-effect:none;fill:none;fill-opacity:1;stroke:#ffffff;stroke-width:30;stroke-linecap:round;stroke-linejoin:miter;stroke-miterlimit:4;stroke-dasharray:none;stroke-dashoffset:0;stroke-opacity:1;stop-color:#000000;stop-opacity:1"
       d="m 138.45611,1199.8002 3.20925,25.2155 5.50157,26.1324 5.0431,20.1724 -5.0431,21.5478 -5.50157,39.4279 -1.83386,35.7602 -0.91692,29.8002 1.37539,35.7602 0.45846,30.2586 -4.12617,23.3817 -2.75079,7.7938 21.54781,8.7109 17.88009,11.4616 15.58778,7.3354 11.00313,-24.2986 15.58778,-29.3417 11.92006,-25.2155 10.08621,-28.4248 7.79388,-23.3816 2.75079,-34.3848 3.20924,-38.0526 5.04311,-27.0493 15.12931,-38.511 6.41849,-33.0094 5.96004,-20.6309"
       id="path884" />
    <path
       style="font-variation-settings:normal;opacity:1;vector-effect:none;fill:none;fill-opacity:1;stroke:#ffffff;stroke-width:30;stroke-linecap:round;stroke-linejoin:miter;stroke-miterlimit:4;stroke-dasharray:none;stroke-dashoffset:0;stroke-opacity:1;stop-color:#000000;stop-opacity:1"
       d="m 133.87147,1495.0509 -5.96003,5.0431 c 0,0 -12.37852,-4.5846 -14.21238,-4.1261 -1.83386,0.4584 -16.046239,-0.4585 -16.046239,-0.4585 l -16.504702,5.5016 -14.670846,13.7539 -7.793887,19.7139 -7.793888,22.4648 1.833856,26.1324 9.627743,33.0094 16.963166,20.6309 19.71395,19.2555 6.418497,22.4647 11.92006,18.797 c 0,0 -1.83385,12.3786 19.71395,15.1294 21.54781,2.7507 32.55094,0.4584 32.55094,0.4584 l 30.25862,-5.96 c 0,0 12.83699,-5.96 13.75392,-7.7939 0.91693,-1.8339 3.66771,-20.6309 3.66771,-20.6309 l -1.83385,-13.7539 1.37539,-25.674 4.58464,-24.2986 1.37539,-24.757 -10.54467,-10.0862 -10.54467,-17.4217 -9.16928,-22.4647 -3.66771,-17.4216 v 0"
       id="path886" />
    <path
       style="font-variation-settings:normal;opacity:1;vector-effect:none;fill:none;fill-opacity:1;stroke:#ffffff;stroke-width:30;stroke-linecap:round;stroke-linejoin:miter;stroke-miterlimit:4;stroke-dasharray:none;stroke-dashoffset:0;stroke-opacity:1;stop-color:#000000;stop-opacity:1"
       d="m 97.652821,1495.5094 14.212379,3.6677 6.87696,9.6278 9.16928,18.3385 13.29546,17.4216 10.0862,32.0925 19.25549,31.1756 18.79702,24.757 17.42163,19.714 8.71082,12.3785"
       id="path888" />
    <path
       style="font-variation-settings:normal;opacity:1;vector-effect:none;fill:none;fill-opacity:1;stroke:#ffffff;stroke-width:30;stroke-linecap:round;stroke-linejoin:miter;stroke-miterlimit:4;stroke-dasharray:none;stroke-dashoffset:0;stroke-opacity:1;stop-color:#000000;stop-opacity:1"
       d="m 148.54232,1503.3033 -10.54467,1.8338 -4.58464,6.4185 3.20925,10.5447 10.54467,14.2124 17.88009,12.837 16.5047,13.2954 12.83699,9.1693 11.92007,3.2093"
       id="path890" />
    <path
       style="font-variation-settings:normal;opacity:1;vector-effect:none;fill:none;fill-opacity:1;stroke:#ffffff;stroke-width:30;stroke-linecap:round;stroke-linejoin:miter;stroke-miterlimit:4;stroke-dasharray:none;stroke-dashoffset:0;stroke-opacity:1;stop-color:#000000;stop-opacity:1"
       d="m 1020.9992,458.46395 12.837,-46.30486 9.1693,-48.13871 0.9169,-22.46474 -14.6708,-27.04937 -27.5079,-55.9326 -27.50781,-68.31113 -0.45846,-33.00941 12.37853,-32.55094 27.04934,-24.757049 38.511,-22.464733 34.3848,-16.504703 c 0,0 22.9232,-10.086207 35.3017,-11.461598 12.3785,-1.375392 17.4217,1.833855 17.4217,1.833855 l 12.8369,11.461599 6.877,28.424765 -8.2523,46.304864 -17.8801,61.89263 -22.9232,46.76332 -23.8402,36.67712 -16.9631,42.17868 -7.7939,22.00627 -7.7939,33.0094 -2.7508,29.3417 1.8339,30.25862 3.6677,27.50784"
       id="path892" />
    <path
       style="font-variation-settings:normal;opacity:1;vector-effect:none;fill:none;fill-opacity:1;stroke:#ffffff;stroke-width:30;stroke-linecap:round;stroke-linejoin:miter;stroke-miterlimit:4;stroke-dasharray:none;stroke-dashoffset:0;stroke-opacity:1;stop-color:#000000;stop-opacity:1"
       d="m 1006.3284,218.22884 -11.46163,-35.76019 c 0,0 -0.45846,-28.88323 -0.45846,-31.17555 0,-2.29232 6.87699,-20.63087 6.87699,-20.63087 l 25.6739,-18.33856 36.2187,-19.255488 34.3848,-13.753919 27.9663,-6.418495 10.5447,7.793887 c 0,0 3.2092,19.713955 3.2092,22.006265 0,2.29232 -5.0431,45.8464 -5.0431,45.8464 0,0 -15.5878,42.17868 -16.0462,44.01254 -0.4585,1.83385 -18.3386,41.26175 -18.3386,41.26175 l -22.4647,28.88323 -18.3386,12.37853 -16.9631,4.58464 -13.754,-2.29232 -9.6277,-20.17241 -11.0031,-33.00941"
       id="path894" />
    <path
       style="font-variation-settings:normal;opacity:1;vector-effect:none;fill:none;fill-opacity:1;stroke:#ffffff;stroke-width:30;stroke-linecap:round;stroke-linejoin:miter;stroke-miterlimit:4;stroke-dasharray:none;stroke-dashoffset:0;stroke-opacity:1;stop-color:#000000;stop-opacity:1"
       d="m 1040.2547,293.41693 11.0031,0.91693 13.754,-5.96004 13.2954,-11.92006 -11.4616,18.33856 -8.7108,22.9232 -4.5846,16.96316 -5.9601,-21.5478 -6.8769,-15.58778"
       id="path896" />
  </g>
</svg>
